<svg xmlns="http://www.w3.org/2000/svg" width="2400" height="1640" viewBox="0 0 2400 1640"><rect width="100%" height="100%" fill="#ffffff"/><text x="60" y="60" font-family="Segoe UI,Arial,sans-serif" font-size="40" fill="#20324b" text-anchor="start" dominant-baseline="central" font-weight="700">PROJECT 1  |  SHIFT REGISTER + TAP SELECT</text><text x="60" y="111" font-family="Segoe UI,Arial,sans-serif" font-size="25" fill="#63738a" text-anchor="start" dominant-baseline="central" font-weight="400">RTL SCHEMATIC  ·  delay_logic.sv  ·  DATA_WIDTH = 16 / DEPTH = 10</text><polyline points="60,150 2340,150" fill="none" stroke="#d7e1ef" stroke-width="2"/><text x="60" y="215" font-family="Segoe UI,Arial,sans-serif" font-size="26" fill="#2466ba" text-anchor="start" dominant-baseline="central" font-weight="700">DATA PIPELINE</text><polygon points="245,300 330,320 330,440 245,460" fill="#fff5e8" stroke="#b86116" stroke-width="2"/><text x="287.5" y="380.0" font-family="Segoe UI,Arial,sans-serif" font-size="20" fill="#b86116" text-anchor="middle" dominant-baseline="central" font-weight="700">MUX</text><text x="255" y="340" font-family="Segoe UI,Arial,sans-serif" font-size="18" fill="#b86116" text-anchor="start" dominant-baseline="central" font-weight="400">1</text><text x="255" y="420" font-family="Segoe UI,Arial,sans-serif" font-size="18" fill="#b86116" text-anchor="start" dominant-baseline="central" font-weight="400">0</text><text x="289" y="438" font-family="Segoe UI,Arial,sans-serif" font-size="17" fill="#b86116" text-anchor="middle" dominant-baseline="central" font-weight="400">S</text><text x="60" y="318" font-family="Segoe UI,Arial,sans-serif" font-size="23" fill="#20324b" text-anchor="start" dominant-baseline="central" font-weight="400">iData[15:0]</text><polyline points="60,340 245,340" fill="none" stroke="#20324b" stroke-width="3"/><polygon points="245,340 235.99552897647322,344.3496553411123 235.99552897647322,335.6503446588877" fill="#20324b" stroke="#20324b" stroke-width="2"/><text x="130" y="398" font-family="Segoe UI,Arial,sans-serif" font-size="23" fill="#20324b" text-anchor="start" dominant-baseline="central" font-weight="400">16&#x27;b0</text><polyline points="130,420 245,420" fill="none" stroke="#20324b" stroke-width="3"/><polygon points="245,420 235.99552897647322,424.3496553411123 235.99552897647322,415.6503446588877" fill="#20324b" stroke="#20324b" stroke-width="2"/><polyline points="288,498 288,450" fill="none" stroke="#087f8c" stroke-width="3"/><polygon points="288,450 292.3496553411123,459.0044710235268 283.6503446588877,459.0044710235268" fill="#087f8c" stroke="#087f8c" stroke-width="2"/><text x="288" y="526" font-family="Segoe UI,Arial,sans-serif" font-size="21" fill="#087f8c" text-anchor="middle" dominant-baseline="central" font-weight="400">iDataEn</text><polygon points="470,275 670,275 670,480 470,480" fill="#edf4ff" stroke="#2466ba" stroke-width="2"/><text x="570.0" y="310" font-family="Segoe UI,Arial,sans-serif" font-size="24" fill="#2466ba" text-anchor="middle" dominant-baseline="central" font-weight="700">data_shift[0]</text><text x="570.0" y="350" font-family="Segoe UI,Arial,sans-serif" font-size="21" fill="#2466ba" text-anchor="middle" dominant-baseline="central" font-weight="400">16-bit DFF</text><text x="485" y="380" font-family="Segoe UI,Arial,sans-serif" font-size="19" fill="#2466ba" text-anchor="start" dominant-baseline="central" font-weight="400">D</text><text x="655" y="380" font-family="Segoe UI,Arial,sans-serif" font-size="19" fill="#2466ba" text-anchor="end" dominant-baseline="central" font-weight="400">Q</text><polyline points="470,422 483,430 470,438" fill="none" stroke="#2466ba" stroke-width="2"/><text x="493" y="430" font-family="Segoe UI,Arial,sans-serif" font-size="18" fill="#2466ba" text-anchor="start" dominant-baseline="central" font-weight="400">CLK</text><circle cx="470" cy="460" r="5" fill="#ffffff" stroke="#2466ba" stroke-width="2"/><text x="488" y="460" font-family="Segoe UI,Arial,sans-serif" font-size="18" fill="#2466ba" text-anchor="start" dominant-baseline="central" font-weight="400">RN</text><text x="456" y="430" font-family="Segoe UI,Arial,sans-serif" font-size="18" fill="#63738a" text-anchor="end" dominant-baseline="central" font-weight="400">iClk</text><polyline points="460,430 470,430" fill="none" stroke="#63738a" stroke-width="2"/><text x="456" y="460" font-family="Segoe UI,Arial,sans-serif" font-size="18" fill="#63738a" text-anchor="end" dominant-baseline="central" font-weight="400">iRsn</text><polyline points="460,460 465,460" fill="none" stroke="#63738a" stroke-width="2"/><polygon points="850,275 1050,275 1050,480 850,480" fill="#edf4ff" stroke="#2466ba" stroke-width="2"/><text x="950.0" y="310" font-family="Segoe UI,Arial,sans-serif" font-size="24" fill="#2466ba" text-anchor="middle" dominant-baseline="central" font-weight="700">data_shift[1]</text><text x="950.0" y="350" font-family="Segoe UI,Arial,sans-serif" font-size="21" fill="#2466ba" text-anchor="middle" dominant-baseline="central" font-weight="400">16-bit DFF</text><text x="865" y="380" font-family="Segoe UI,Arial,sans-serif" font-size="19" fill="#2466ba" text-anchor="start" dominant-baseline="central" font-weight="400">D</text><text x="1035" y="380" font-family="Segoe UI,Arial,sans-serif" font-size="19" fill="#2466ba" text-anchor="end" dominant-baseline="central" font-weight="400">Q</text><polyline points="850,422 863,430 850,438" fill="none" stroke="#2466ba" stroke-width="2"/><text x="873" y="430" font-family="Segoe UI,Arial,sans-serif" font-size="18" fill="#2466ba" text-anchor="start" dominant-baseline="central" font-weight="400">CLK</text><circle cx="850" cy="460" r="5" fill="#ffffff" stroke="#2466ba" stroke-width="2"/><text x="868" y="460" font-family="Segoe UI,Arial,sans-serif" font-size="18" fill="#2466ba" text-anchor="start" dominant-baseline="central" font-weight="400">RN</text><text x="836" y="430" font-family="Segoe UI,Arial,sans-serif" font-size="18" fill="#63738a" text-anchor="end" dominant-baseline="central" font-weight="400">iClk</text><polyline points="840,430 850,430" fill="none" stroke="#63738a" stroke-width="2"/><text x="836" y="460" font-family="Segoe UI,Arial,sans-serif" font-size="18" fill="#63738a" text-anchor="end" dominant-baseline="central" font-weight="400">iRsn</text><polyline points="840,460 845,460" fill="none" stroke="#63738a" stroke-width="2"/><polygon points="1300,275 1500,275 1500,480 1300,480" fill="#edf4ff" stroke="#2466ba" stroke-width="2"/><text x="1400.0" y="310" font-family="Segoe UI,Arial,sans-serif" font-size="24" fill="#2466ba" text-anchor="middle" dominant-baseline="central" font-weight="700">data_shift[6]</text><text x="1400.0" y="350" font-family="Segoe UI,Arial,sans-serif" font-size="21" fill="#2466ba" text-anchor="middle" dominant-baseline="central" font-weight="400">16-bit DFF</text><text x="1315" y="380" font-family="Segoe UI,Arial,sans-serif" font-size="19" fill="#2466ba" text-anchor="start" dominant-baseline="central" font-weight="400">D</text><text x="1485" y="380" font-family="Segoe UI,Arial,sans-serif" font-size="19" fill="#2466ba" text-anchor="end" dominant-baseline="central" font-weight="400">Q</text><polyline points="1300,422 1313,430 1300,438" fill="none" stroke="#2466ba" stroke-width="2"/><text x="1323" y="430" font-family="Segoe UI,Arial,sans-serif" font-size="18" fill="#2466ba" text-anchor="start" dominant-baseline="central" font-weight="400">CLK</text><circle cx="1300" cy="460" r="5" fill="#ffffff" stroke="#2466ba" stroke-width="2"/><text x="1318" y="460" font-family="Segoe UI,Arial,sans-serif" font-size="18" fill="#2466ba" text-anchor="start" dominant-baseline="central" font-weight="400">RN</text><text x="1286" y="430" font-family="Segoe UI,Arial,sans-serif" font-size="18" fill="#63738a" text-anchor="end" dominant-baseline="central" font-weight="400">iClk</text><polyline points="1290,430 1300,430" fill="none" stroke="#63738a" stroke-width="2"/><text x="1286" y="460" font-family="Segoe UI,Arial,sans-serif" font-size="18" fill="#63738a" text-anchor="end" dominant-baseline="central" font-weight="400">iRsn</text><polyline points="1290,460 1295,460" fill="none" stroke="#63738a" stroke-width="2"/><polyline points="330,380.0 390,380.0 390,380 470,380" fill="none" stroke="#2466ba" stroke-width="3"/><polygon points="470,380 460.9955289764732,384.3496553411123 460.9955289764732,375.6503446588877" fill="#2466ba" stroke="#2466ba" stroke-width="2"/><polyline points="670,380 850,380" fill="none" stroke="#2466ba" stroke-width="3"/><polygon points="850,380 840.9955289764732,384.3496553411123 840.9955289764732,375.6503446588877" fill="#2466ba" stroke="#2466ba" stroke-width="2"/><polyline points="1050,380 1130,380" fill="none" stroke="#2466ba" stroke-width="3"/><polygon points="1130,380 1120.9955289764732,384.3496553411123 1120.9955289764732,375.6503446588877" fill="#2466ba" stroke="#2466ba" stroke-width="2"/><text x="1190" y="380" font-family="Segoe UI,Arial,sans-serif" font-size="38" fill="#2466ba" text-anchor="middle" dominant-baseline="central" font-weight="400">···</text><polyline points="1250,380 1300,380" fill="none" stroke="#2466ba" stroke-width="3"/><polygon points="1300,380 1290.9955289764732,384.3496553411123 1290.9955289764732,375.6503446588877" fill="#2466ba" stroke="#2466ba" stroke-width="2"/><polygon points="1680,280 1990,280 1990,460 1680,460" fill="#eaf3ff" stroke="#2466ba" stroke-width="2"/><text x="1835.0" y="357.0" font-family="Segoe UI,Arial,sans-serif" font-size="22" fill="#2466ba" text-anchor="middle" dominant-baseline="central" font-weight="700">data_shift[7:9]</text><text x="1835.0" y="390.0" font-family="Segoe UI,Arial,sans-serif" font-size="18" fill="#2466ba" text-anchor="middle" dominant-baseline="central" font-weight="400">3 further 16-bit stages</text><polyline points="1694,460 1701,450 1708,460" fill="none" stroke="#2466ba" stroke-width="2"/><polyline points="1500,380 1680,380" fill="none" stroke="#2466ba" stroke-width="3"/><polygon points="1680,380 1670.9955289764732,384.3496553411123 1670.9955289764732,375.6503446588877" fill="#2466ba" stroke="#2466ba" stroke-width="2"/><text x="1675" y="504" font-family="Segoe UI,Arial,sans-serif" font-size="22" fill="#63738a" text-anchor="start" dominant-baseline="central" font-weight="400">Declared but not selectable by 3-bit iDelay.</text><text x="60" y="665" font-family="Segoe UI,Arial,sans-serif" font-size="26" fill="#2466ba" text-anchor="start" dominant-baseline="central" font-weight="700">VALID PIPELINE</text><polygon points="470,720 670,720 670,925 470,925" fill="#edf4ff" stroke="#2466ba" stroke-width="2"/><text x="570.0" y="755" font-family="Segoe UI,Arial,sans-serif" font-size="24" fill="#2466ba" text-anchor="middle" dominant-baseline="central" font-weight="700">enable_shift[0]</text><text x="570.0" y="795" font-family="Segoe UI,Arial,sans-serif" font-size="21" fill="#2466ba" text-anchor="middle" dominant-baseline="central" font-weight="400">1-bit DFF</text><text x="485" y="825" font-family="Segoe UI,Arial,sans-serif" font-size="19" fill="#2466ba" text-anchor="start" dominant-baseline="central" font-weight="400">D</text><text x="655" y="825" font-family="Segoe UI,Arial,sans-serif" font-size="19" fill="#2466ba" text-anchor="end" dominant-baseline="central" font-weight="400">Q</text><polyline points="470,867 483,875 470,883" fill="none" stroke="#2466ba" stroke-width="2"/><text x="493" y="875" font-family="Segoe UI,Arial,sans-serif" font-size="18" fill="#2466ba" text-anchor="start" dominant-baseline="central" font-weight="400">CLK</text><circle cx="470" cy="905" r="5" fill="#ffffff" stroke="#2466ba" stroke-width="2"/><text x="488" y="905" font-family="Segoe UI,Arial,sans-serif" font-size="18" fill="#2466ba" text-anchor="start" dominant-baseline="central" font-weight="400">RN</text><text x="456" y="875" font-family="Segoe UI,Arial,sans-serif" font-size="18" fill="#63738a" text-anchor="end" dominant-baseline="central" font-weight="400">iClk</text><polyline points="460,875 470,875" fill="none" stroke="#63738a" stroke-width="2"/><text x="456" y="905" font-family="Segoe UI,Arial,sans-serif" font-size="18" fill="#63738a" text-anchor="end" dominant-baseline="central" font-weight="400">iRsn</text><polyline points="460,905 465,905" fill="none" stroke="#63738a" stroke-width="2"/><polygon points="850,720 1050,720 1050,925 850,925" fill="#edf4ff" stroke="#2466ba" stroke-width="2"/><text x="950.0" y="755" font-family="Segoe UI,Arial,sans-serif" font-size="24" fill="#2466ba" text-anchor="middle" dominant-baseline="central" font-weight="700">enable_shift[1]</text><text x="950.0" y="795" font-family="Segoe UI,Arial,sans-serif" font-size="21" fill="#2466ba" text-anchor="middle" dominant-baseline="central" font-weight="400">1-bit DFF</text><text x="865" y="825" font-family="Segoe UI,Arial,sans-serif" font-size="19" fill="#2466ba" text-anchor="start" dominant-baseline="central" font-weight="400">D</text><text x="1035" y="825" font-family="Segoe UI,Arial,sans-serif" font-size="19" fill="#2466ba" text-anchor="end" dominant-baseline="central" font-weight="400">Q</text><polyline points="850,867 863,875 850,883" fill="none" stroke="#2466ba" stroke-width="2"/><text x="873" y="875" font-family="Segoe UI,Arial,sans-serif" font-size="18" fill="#2466ba" text-anchor="start" dominant-baseline="central" font-weight="400">CLK</text><circle cx="850" cy="905" r="5" fill="#ffffff" stroke="#2466ba" stroke-width="2"/><text x="868" y="905" font-family="Segoe UI,Arial,sans-serif" font-size="18" fill="#2466ba" text-anchor="start" dominant-baseline="central" font-weight="400">RN</text><text x="836" y="875" font-family="Segoe UI,Arial,sans-serif" font-size="18" fill="#63738a" text-anchor="end" dominant-baseline="central" font-weight="400">iClk</text><polyline points="840,875 850,875" fill="none" stroke="#63738a" stroke-width="2"/><text x="836" y="905" font-family="Segoe UI,Arial,sans-serif" font-size="18" fill="#63738a" text-anchor="end" dominant-baseline="central" font-weight="400">iRsn</text><polyline points="840,905 845,905" fill="none" stroke="#63738a" stroke-width="2"/><polygon points="1300,720 1500,720 1500,925 1300,925" fill="#edf4ff" stroke="#2466ba" stroke-width="2"/><text x="1400.0" y="755" font-family="Segoe UI,Arial,sans-serif" font-size="24" fill="#2466ba" text-anchor="middle" dominant-baseline="central" font-weight="700">enable_shift[6]</text><text x="1400.0" y="795" font-family="Segoe UI,Arial,sans-serif" font-size="21" fill="#2466ba" text-anchor="middle" dominant-baseline="central" font-weight="400">1-bit DFF</text><text x="1315" y="825" font-family="Segoe UI,Arial,sans-serif" font-size="19" fill="#2466ba" text-anchor="start" dominant-baseline="central" font-weight="400">D</text><text x="1485" y="825" font-family="Segoe UI,Arial,sans-serif" font-size="19" fill="#2466ba" text-anchor="end" dominant-baseline="central" font-weight="400">Q</text><polyline points="1300,867 1313,875 1300,883" fill="none" stroke="#2466ba" stroke-width="2"/><text x="1323" y="875" font-family="Segoe UI,Arial,sans-serif" font-size="18" fill="#2466ba" text-anchor="start" dominant-baseline="central" font-weight="400">CLK</text><circle cx="1300" cy="905" r="5" fill="#ffffff" stroke="#2466ba" stroke-width="2"/><text x="1318" y="905" font-family="Segoe UI,Arial,sans-serif" font-size="18" fill="#2466ba" text-anchor="start" dominant-baseline="central" font-weight="400">RN</text><text x="1286" y="875" font-family="Segoe UI,Arial,sans-serif" font-size="18" fill="#63738a" text-anchor="end" dominant-baseline="central" font-weight="400">iClk</text><polyline points="1290,875 1300,875" fill="none" stroke="#63738a" stroke-width="2"/><text x="1286" y="905" font-family="Segoe UI,Arial,sans-serif" font-size="18" fill="#63738a" text-anchor="end" dominant-baseline="central" font-weight="400">iRsn</text><polyline points="1290,905 1295,905" fill="none" stroke="#63738a" stroke-width="2"/><text x="60" y="803" font-family="Segoe UI,Arial,sans-serif" font-size="23" fill="#087f8c" text-anchor="start" dominant-baseline="central" font-weight="400">iDataEn</text><polyline points="60,825 470,825" fill="none" stroke="#087f8c" stroke-width="3"/><polygon points="470,825 460.9955289764732,829.3496553411123 460.9955289764732,820.6503446588877" fill="#087f8c" stroke="#087f8c" stroke-width="2"/><polyline points="670,825 850,825" fill="none" stroke="#087f8c" stroke-width="3"/><polygon points="850,825 840.9955289764732,829.3496553411123 840.9955289764732,820.6503446588877" fill="#087f8c" stroke="#087f8c" stroke-width="2"/><polyline points="1050,825 1130,825" fill="none" stroke="#087f8c" stroke-width="3"/><polygon points="1130,825 1120.9955289764732,829.3496553411123 1120.9955289764732,820.6503446588877" fill="#087f8c" stroke="#087f8c" stroke-width="2"/><text x="1190" y="825" font-family="Segoe UI,Arial,sans-serif" font-size="38" fill="#087f8c" text-anchor="middle" dominant-baseline="central" font-weight="400">···</text><polyline points="1250,825 1300,825" fill="none" stroke="#087f8c" stroke-width="3"/><polygon points="1300,825 1290.9955289764732,829.3496553411123 1290.9955289764732,820.6503446588877" fill="#087f8c" stroke="#087f8c" stroke-width="2"/><polygon points="1680,725 1990,725 1990,905 1680,905" fill="#eaf3ff" stroke="#2466ba" stroke-width="2"/><text x="1835.0" y="802.0" font-family="Segoe UI,Arial,sans-serif" font-size="22" fill="#2466ba" text-anchor="middle" dominant-baseline="central" font-weight="700">enable_shift[7:9]</text><text x="1835.0" y="835.0" font-family="Segoe UI,Arial,sans-serif" font-size="18" fill="#2466ba" text-anchor="middle" dominant-baseline="central" font-weight="400">3 further 1-bit stages</text><polyline points="1694,905 1701,895 1708,905" fill="none" stroke="#2466ba" stroke-width="2"/><polyline points="1500,825 1680,825" fill="none" stroke="#087f8c" stroke-width="3"/><polygon points="1680,825 1670.9955289764732,829.3496553411123 1670.9955289764732,820.6503446588877" fill="#087f8c" stroke="#087f8c" stroke-width="2"/><text x="60" y="1035" font-family="Segoe UI,Arial,sans-serif" font-size="26" fill="#b86116" text-anchor="start" dominant-baseline="central" font-weight="700">COMBINATIONAL TAP / OUTPUT LOGIC</text><polygon points="410,1090 725,1090 725,1205 410,1205" fill="#fff5e8" stroke="#b86116" stroke-width="2"/><text x="567.5" y="1134.5" font-family="Segoe UI,Arial,sans-serif" font-size="22" fill="#b86116" text-anchor="middle" dominant-baseline="central" font-weight="700">7:1 DATA MUX</text><text x="567.5" y="1167.5" font-family="Segoe UI,Arial,sans-serif" font-size="18" fill="#b86116" text-anchor="middle" dominant-baseline="central" font-weight="400">{data_shift[6], …, [0]}</text><text x="60" y="1125" font-family="Segoe UI,Arial,sans-serif" font-size="23" fill="#2466ba" text-anchor="start" dominant-baseline="central" font-weight="400">7 separate 16-bit taps</text><polyline points="60,1147 410,1147" fill="none" stroke="#2466ba" stroke-width="3"/><polygon points="410,1147 400.9955289764732,1151.3496553411123 400.9955289764732,1142.6503446588877" fill="#2466ba" stroke="#2466ba" stroke-width="2"/><polygon points="410,1275 725,1275 725,1390 410,1390" fill="#fff5e8" stroke="#b86116" stroke-width="2"/><text x="567.5" y="1319.5" font-family="Segoe UI,Arial,sans-serif" font-size="22" fill="#b86116" text-anchor="middle" dominant-baseline="central" font-weight="700">7:1 VALID MUX</text><text x="567.5" y="1352.5" font-family="Segoe UI,Arial,sans-serif" font-size="18" fill="#b86116" text-anchor="middle" dominant-baseline="central" font-weight="400">enable_shift[6:0]</text><text x="60" y="1310" font-family="Segoe UI,Arial,sans-serif" font-size="23" fill="#087f8c" text-anchor="start" dominant-baseline="central" font-weight="400">7 separate valid bits</text><polyline points="60,1332 410,1332" fill="none" stroke="#087f8c" stroke-width="3"/><polygon points="410,1332 400.9955289764732,1336.3496553411123 400.9955289764732,1327.6503446588877" fill="#087f8c" stroke="#087f8c" stroke-width="2"/><text x="570" y="1245" font-family="Segoe UI,Arial,sans-serif" font-size="23" fill="#b86116" text-anchor="middle" dominant-baseline="central" font-weight="400">S = iDelay − 1</text><polyline points="567,1218 567,1205" fill="none" stroke="#b86116" stroke-width="2"/><polygon points="567,1205 571.3496553411123,1214.0044710235268 562.6503446588877,1214.0044710235268" fill="#b86116" stroke="#b86116" stroke-width="2"/><polyline points="567,1258 567,1275" fill="none" stroke="#b86116" stroke-width="2"/><polygon points="567,1275 562.6503446588877,1265.9955289764732 571.3496553411123,1265.9955289764732" fill="#b86116" stroke="#b86116" stroke-width="2"/><polygon points="1180,1252 1242.5,1252 1242.5,1252.0 1250.6578870137532,1252.5133083175713 1258.6761903189076,1254.044450422656 1266.4177145228182,1256.5672280493227 1273.75,1260.0384757729337 1280.5475893130451,1264.398799582526 1286.6941738241592,1269.5735931288073 1292.0845837682023,1275.4743142594768 1296.6265877365274,1282.0 1300.2424707819555,1289.0389940580947 1302.8703641430668,1296.4708572938487 1304.465303835863,1304.168428466797 1305.0,1312.0 1304.465303835863,1319.831571533203 1302.8703641430668,1327.5291427061513 1300.2424707819555,1334.9610059419053 1296.6265877365274,1342.0 1292.0845837682023,1348.5256857405232 1286.6941738241592,1354.4264068711927 1280.5475893130451,1359.601200417474 1273.75,1363.9615242270663 1266.4177145228182,1367.4327719506773 1258.6761903189076,1369.955549577344 1250.6578870137532,1371.4866916824287 1242.5,1372.0 1180,1372" fill="#fff5e8" stroke="#b86116" stroke-width="2"/><text x="1235.0" y="1312.0" font-family="Segoe UI,Arial,sans-serif" font-size="18" fill="#b86116" text-anchor="middle" dominant-baseline="central" font-weight="700">AND</text><polyline points="725,1332 780,1332 780,1282 1180,1282" fill="none" stroke="#087f8c" stroke-width="3"/><polygon points="1180,1282 1170.9955289764732,1286.3496553411123 1170.9955289764732,1277.6503446588877" fill="#087f8c" stroke="#087f8c" stroke-width="2"/><text x="820" y="1290" font-family="Segoe UI,Arial,sans-serif" font-size="23" fill="#b86116" text-anchor="start" dominant-baseline="central" font-weight="400">iRsn</text><polyline points="820,1312 1180,1312" fill="none" stroke="#b86116" stroke-width="3"/><polygon points="1180,1312 1170.9955289764732,1316.3496553411123 1170.9955289764732,1307.6503446588877" fill="#b86116" stroke="#b86116" stroke-width="2"/><text x="820" y="1328" font-family="Segoe UI,Arial,sans-serif" font-size="23" fill="#b86116" text-anchor="start" dominant-baseline="central" font-weight="400">iDelay != 0</text><polyline points="820,1350 1180,1350" fill="none" stroke="#b86116" stroke-width="3"/><polygon points="1180,1350 1170.9955289764732,1354.3496553411123 1170.9955289764732,1345.6503446588877" fill="#b86116" stroke="#b86116" stroke-width="2"/><polyline points="1305,1312 2150,1312" fill="none" stroke="#087f8c" stroke-width="3"/><polygon points="2150,1312 2140.9955289764735,1316.3496553411123 2140.9955289764735,1307.6503446588877" fill="#087f8c" stroke="#087f8c" stroke-width="2"/><text x="2170" y="1312" font-family="Segoe UI,Arial,sans-serif" font-size="25" fill="#087f8c" text-anchor="start" dominant-baseline="central" font-weight="400">oDataEn</text><polygon points="1770,1090 1855,1110 1855,1230 1770,1250" fill="#fff5e8" stroke="#b86116" stroke-width="2"/><text x="1812.5" y="1170.0" font-family="Segoe UI,Arial,sans-serif" font-size="20" fill="#b86116" text-anchor="middle" dominant-baseline="central" font-weight="700">MUX</text><text x="1780" y="1130" font-family="Segoe UI,Arial,sans-serif" font-size="18" fill="#b86116" text-anchor="start" dominant-baseline="central" font-weight="400">1</text><text x="1780" y="1210" font-family="Segoe UI,Arial,sans-serif" font-size="18" fill="#b86116" text-anchor="start" dominant-baseline="central" font-weight="400">0</text><text x="1814" y="1228" font-family="Segoe UI,Arial,sans-serif" font-size="17" fill="#b86116" text-anchor="middle" dominant-baseline="central" font-weight="400">S</text><polyline points="725,1147 1630,1147 1630,1130 1770,1130" fill="none" stroke="#2466ba" stroke-width="3"/><polygon points="1770,1130 1760.9955289764732,1134.3496553411123 1760.9955289764732,1125.6503446588877" fill="#2466ba" stroke="#2466ba" stroke-width="2"/><text x="1600" y="1188" font-family="Segoe UI,Arial,sans-serif" font-size="23" fill="#20324b" text-anchor="start" dominant-baseline="central" font-weight="400">16&#x27;b0</text><polyline points="1600,1210 1770,1210" fill="none" stroke="#20324b" stroke-width="3"/><polygon points="1770,1210 1760.9955289764732,1214.3496553411123 1760.9955289764732,1205.6503446588877" fill="#20324b" stroke="#20324b" stroke-width="2"/><polyline points="1960,1312 1960,1272 1813,1272 1813,1240" fill="none" stroke="#087f8c" stroke-width="3"/><polygon points="1813,1240 1817.3496553411123,1249.0044710235268 1808.6503446588877,1249.0044710235268" fill="#087f8c" stroke="#087f8c" stroke-width="2"/><circle cx="1960" cy="1312" r="5" fill="#087f8c" stroke="#087f8c" stroke-width="2"/><polyline points="1855,1170.0 2150,1170.0" fill="none" stroke="#2466ba" stroke-width="3"/><polygon points="2150,1170.0 2140.9955289764735,1174.3496553411123 2140.9955289764735,1165.6503446588877" fill="#2466ba" stroke="#2466ba" stroke-width="2"/><text x="2170" y="1170.0" font-family="Segoe UI,Arial,sans-serif" font-size="25" fill="#2466ba" text-anchor="start" dominant-baseline="central" font-weight="400">oData[15:0]</text><polyline points="60,1445 2340,1445" fill="none" stroke="#d7e1ef" stroke-width="2"/><text x="60" y="1470" font-family="Segoe UI,Arial,sans-serif" font-size="23" fill="#63738a" text-anchor="start" dominant-baseline="central" font-weight="400">All DFFs: rising-edge iClk, active-low asynchronous clear iRsn. Input MUX writes zero for invalid input.</text><text x="60" y="1506" font-family="Segoe UI,Arial,sans-serif" font-size="23" fill="#63738a" text-anchor="start" dominant-baseline="central" font-weight="400">Data and valid taps are separate named MUX inputs, not electrically shorted together. Selectable delays: 1…7.</text><text x="60" y="1605" font-family="Segoe UI,Arial,sans-serif" font-size="22" fill="#63738a" text-anchor="start" dominant-baseline="central" font-weight="400">Source-derived RTL structure. Not a post-synthesis FPGA technology netlist; no physical resource count is claimed.</text></svg>